<?xml version="1.0" encoding="UTF-8"?><svg xmlns="http://www.w3.org/2000/svg" xmlns:xlink="http://www.w3.org/1999/xlink" height="1642.3" preserveAspectRatio="xMidYMid meet" version="1.0" viewBox="143.5 178.8 2713.0 1642.3" width="2713.0" zoomAndPan="magnify"><g id="change1_1"><path d="M1148.88,1819.66c-0.24-3.06-0.49-6.11-0.8-10.03c-2.54,1.88-4.48,3.31-7.65,5.65c0-2.96-0.03-5.02,0-7.09 c0.66-41.77-5.98-82.46-18.83-122.12c-16.18-49.92-41.28-95.19-72.74-137.04c-35.43-47.13-77.07-88.33-121-127.4 c-13.82-12.29-27.01-25.32-39.99-38.5c-10.88-11.05-24.12-17.46-38.79-20.8c-18.29-4.17-36.77-7.5-55.22-10.95 c-15.25-2.85-29.55-7.88-42.67-16.29c-13.97-8.95-18.8-22.5-17.28-37.85c1.28-12.85,3.95-25.85,8.14-38.05 c3.57-10.39,5.82-20.74,5.7-31.45c-0.34-32.05,0.1-64.2-2.35-96.11c-2.49-32.51-6.78-65.01-12.58-97.1 c-7.71-42.69-21.38-83.68-42.27-121.96c-16.84-30.87-37.78-58.43-65.76-80.2c-1.8-1.4-3.84-2.72-5.12-4.53 c-18.71-26.34-45.64-38.7-76.16-44.93c-21.97-4.48-44.33-7.57-65.85-13.62c-14.28-4.02-28.29-10.78-40.83-18.81 c-20.7-13.26-28.6-34.92-32.38-58.19c-1.28-7.89-3.11-16.02-2.43-23.84c1.75-20.25-5.77-38.17-12.35-56.39 c-30.99-85.83-71.64-167.01-120.59-243.85c-39.25-61.6-80.58-121.89-120.98-182.75c-1.25-1.88-2.56-3.73-4.56-6.64 c24.37,6.88,46.33,16.49,67.45,27.71c39.01,20.73,77.52,42.4,116.34,63.48c32.89,17.86,67.03,32.42,103.57,41.59 c30.16,7.57,59.73,17.45,89.65,26.03c38.12,10.94,76.93,18.82,116.42,22.28c63.29,5.55,125.78,1.49,186.18-20.14 c14.83-5.31,29.15-12.02,43.68-18.13c2.91-1.22,5.72-2.69,9.05-4.27c0.63,2.2,1.09,3.84,1.68,5.91c2.88-1.12,5.55-2.16,9.18-3.57 c-0.51,6.58-0.92,12.57-1.45,18.56c-4.86,54.71-4.71,109.39,1.51,163.99c8.01,70.4,25.7,137.94,58.69,201.14 c27.64,52.95,53.63,106.78,82.04,159.31c37.87,70.04,80.64,137,133.28,197.14c10.71,12.23,22.09,23.89,33.53,35.45 c1.8,1.82,5.75,2.86,8.34,2.36c22.7-4.37,39.63-18.08,54.52-34.78c20.76-23.27,35.49-50.53,50.91-77.32 c12.79-22.22,25.62-44.42,38.53-66.57c2.28-3.92,5.07-7.55,8.68-11.03c-0.75,4.68-1.49,9.36-2.24,14.04 c0.36,0.19,0.73,0.39,1.1,0.58c3.41-4.62,6.82-9.25,11.34-15.36c-1.35,9.24-2.64,16.69-3.48,24.19c-2.22,19.7-2.74,39.37,3.9,58.44 c8.86,25.47,27.67,38.45,53.83,41.41c9.3,1.05,18.76,0.66,28.08,1.59c7.37,0.73,14,2.9,19.89,8.56 c8.65,8.31,17.72,17.1,28.28,22.31c17.75,8.75,34.4,1.26,49.53-8.89c21.48-14.42,36.83-34.85,52.63-54.8 c2.12-2.68,4.19-5.41,6.99-9.03c0.42,4.11,0.75,7.25,1.19,11.55c2.9-3.27,5.07-5.72,7.48-8.43c0,13.19,1.68,26.1-0.3,38.42 c-7.49,46.53-16.41,92.83-24.33,139.3c-4.74,27.81-8.43,55.78-3.66,84.03c2.22,13.16,7.33,24.83,17.41,34.21 c8.08,7.52,18.12,7.2,27.75,7.84c63.02,4.19,125.19-2.49,186.8-15.5c74.53-15.75,146.54-39.88,216.63-69.17 c31.1-12.99,60.64-30.31,89.54-47.89c73.45-44.67,139.78-98.98,204.79-154.94c10.74-9.25,21.41-18.58,32.51-28.22 c1.46,2.32,2.6,4.15,3.9,6.23c2.03-1.36,3.71-2.49,5.77-3.87c4.95,12,9.55,23.89,14.69,35.53 c28.82,65.26,67.98,123.93,114.04,178.18c42.52,50.08,90.3,94.96,137.84,140.11c64.82,61.57,138.25,111.5,213.34,159.27 c1.54,0.98,3.09,1.95,4.6,2.98c0.32,0.22,0.46,0.68,1.37,2.09c-14.27-0.72-27.82-1.52-41.38-2.06 c-80.67-3.2-160.32,2.11-237.21,29.32c-44.23,15.65-84.56,38.38-120.96,67.98c-2.01,1.63-3.24,4.3-4.6,6.62 c-6.68,11.43-12.15,23.78-20.13,34.21c-21.14,27.66-45.89,34.91-78.3,21.89c-18.79-7.55-36.48-17.99-54.24-27.88 c-12.2-6.79-23.72-14.8-35.47-22.38c-26.97-17.39-54.88-30.66-87.98-33.83c-36.06-3.44-71.66-5.75-107.34,1.54 c-40.63,8.29-77.37,25.16-109.79,51.06c-44.44,35.49-74.86,81.12-95.91,133.48c-4.89,12.15-10.79,23.78-20.69,32.85 c-9.47,8.68-20.41,10.84-32.52,7.12c-17.7-5.44-32.55-15.91-45.84-28.27c-24.5-22.78-47.91-46.74-72.68-69.21 c-10.74-9.74-23.53-17.3-35.78-25.25c-3.87-2.51-9.02-4.34-13.57-4.32c-20.16,0.08-38.21-8.64-57.29-12.92 c-43.89-9.83-88.05-11.5-132.52-5.45c-88.37,12.04-165.73,49.43-235.35,103.73c-20.73,16.17-39.74,34.55-59.4,52.07 c-2.52,2.25-4.26,5.39-6.35,8.11C1150.41,1820.67,1149.64,1820.17,1148.88,1819.66z M1509.93,1255.89 c-1.05-24.07-2.07-47.31-3.14-71.8c-16.21,11.44-32.71,20.9-46.39,33.42c-11.46,10.49-19.64,24.58-30.27,38.38 C1458.16,1255.89,1483.52,1255.89,1509.93,1255.89z M1290.01,1160.39c13.71,15.42,27.26,29.69,39.66,44.9 c9.8,12.03,23.85,16.14,38.25,24.23c-9.25-33.39-17.99-64.93-26.9-97.11C1323.5,1142.02,1307.13,1151,1290.01,1160.39z"/></g><g fill="#FFF" id="change2_1"><path d="M1509.93,1255.89c-26.41,0-51.77,0-79.81,0c10.64-13.8,18.81-27.88,30.27-38.38 c13.68-12.53,30.18-21.98,46.39-33.42C1507.86,1208.58,1508.88,1231.82,1509.93,1255.89z"/><path d="M1290.01,1160.39c17.11-9.39,33.49-18.37,51-27.98c8.91,32.18,17.65,63.72,26.9,97.11 c-14.39-8.09-28.44-12.2-38.25-24.23C1317.28,1190.08,1303.73,1175.81,1290.01,1160.39z"/></g></svg>